<svg width="22" height="22" viewBox="0 0 22 22" fill="none" xmlns="http://www.w3.org/2000/svg">
<path fill-rule="evenodd" clip-rule="evenodd" d="M6.62109 16.5626C6.20709 16.5626 5.87109 16.2266 5.87109 15.8126V8.95264C5.87109 8.53864 6.20709 8.20264 6.62109 8.20264C7.03509 8.20264 7.37109 8.53864 7.37109 8.95264V15.8126C7.37109 16.2266 7.03509 16.5626 6.62109 16.5626Z" fill="#FEFEFE"/>
<path fill-rule="evenodd" clip-rule="evenodd" d="M11.2881 16.5615C10.8741 16.5615 10.5381 16.2255 10.5381 15.8115V5.66846C10.5381 5.25446 10.8741 4.91846 11.2881 4.91846C11.7021 4.91846 12.0381 5.25446 12.0381 5.66846V15.8115C12.0381 16.2255 11.7021 16.5615 11.2881 16.5615Z" fill="#FEFEFE"/>
<path fill-rule="evenodd" clip-rule="evenodd" d="M15.8784 16.5616C15.4644 16.5616 15.1284 16.2256 15.1284 15.8116V12.5776C15.1284 12.1636 15.4644 11.8276 15.8784 11.8276C16.2924 11.8276 16.6284 12.1636 16.6284 12.5776V15.8116C16.6284 16.2256 16.2924 16.5616 15.8784 16.5616Z" fill="#FEFEFE"/>
<path fill-rule="evenodd" clip-rule="evenodd" d="M6.564 1.5C3.792 1.5 2 3.397 2 6.335V15.165C2 18.103 3.792 20 6.564 20H15.936C18.709 20 20.5 18.103 20.5 15.165V6.335C20.5 3.397 18.709 1.5 15.936 1.5H6.564ZM15.936 21.5H6.564C2.937 21.5 0.5 18.954 0.5 15.165V6.335C0.5 2.546 2.937 0 6.564 0H15.936C19.563 0 22 2.546 22 6.335V15.165C22 18.954 19.563 21.5 15.936 21.5Z" fill="#FEFEFE"/>
</svg>
