<svg width="25" height="24" viewBox="0 0 25 24" fill="none" xmlns="http://www.w3.org/2000/svg">
<mask id="mask0_441_3222" style="mask-type:luminance" maskUnits="userSpaceOnUse" x="2" y="8" width="21" height="15">
<path fill-rule="evenodd" clip-rule="evenodd" d="M2.50049 8.79395H22.5001V22.5379H2.50049V8.79395Z" fill="white"/>
</mask>
<g mask="url(#mask0_441_3222)">
<path fill-rule="evenodd" clip-rule="evenodd" d="M18.0655 22.5379H6.93549C4.49049 22.5379 2.50049 20.5489 2.50049 18.1029V13.2279C2.50049 10.7829 4.49049 8.79395 6.93549 8.79395H7.86849C8.28249 8.79395 8.61849 9.12995 8.61849 9.54395C8.61849 9.95795 8.28249 10.2939 7.86849 10.2939H6.93549C5.31649 10.2939 4.00049 11.6099 4.00049 13.2279V18.1029C4.00049 19.7219 5.31649 21.0379 6.93549 21.0379H18.0655C19.6835 21.0379 21.0005 19.7219 21.0005 18.1029V13.2189C21.0005 11.6059 19.6885 10.2939 18.0765 10.2939H17.1335C16.7195 10.2939 16.3835 9.95795 16.3835 9.54395C16.3835 9.12995 16.7195 8.79395 17.1335 8.79395H18.0765C20.5155 8.79395 22.5005 10.7789 22.5005 13.2189V18.1029C22.5005 20.5489 20.5105 22.5379 18.0655 22.5379Z" fill="#FEFEFE"/>
</g>
<mask id="mask1_441_3222" style="mask-type:luminance" maskUnits="userSpaceOnUse" x="11" y="2" width="3" height="14">
<path fill-rule="evenodd" clip-rule="evenodd" d="M11.75 2H13.25V15.5409H11.75V2Z" fill="white"/>
</mask>
<g mask="url(#mask1_441_3222)">
<path fill-rule="evenodd" clip-rule="evenodd" d="M12.5 15.541C12.086 15.541 11.75 15.205 11.75 14.791V2.75C11.75 2.336 12.086 2 12.5 2C12.914 2 13.25 2.336 13.25 2.75V14.791C13.25 15.205 12.914 15.541 12.5 15.541Z" fill="#FEFEFE"/>
</g>
<path fill-rule="evenodd" clip-rule="evenodd" d="M9.5852 6.42853C9.3942 6.42853 9.2022 6.35553 9.0562 6.20953C8.7632 5.91753 8.7612 5.44353 9.0542 5.14953L11.9692 2.22153C12.2502 1.93853 12.7502 1.93853 13.0312 2.22153L15.9472 5.14953C16.2392 5.44353 16.2382 5.91753 15.9452 6.20953C15.6512 6.50153 15.1772 6.50153 14.8852 6.20753L12.5002 3.81353L10.1162 6.20753C9.9702 6.35553 9.7772 6.42853 9.5852 6.42853Z" fill="#FEFEFE"/>
</svg>
