<svg width="22" height="21" viewBox="0 0 22 21" fill="none" xmlns="http://www.w3.org/2000/svg">
<path fill-rule="evenodd" clip-rule="evenodd" d="M11.1196 16.3344C10.6841 16.3344 10.3306 15.9809 10.3306 15.5454V12.8762C10.3306 12.4407 10.6841 12.0872 11.1196 12.0872C11.5552 12.0872 11.9087 12.4407 11.9087 12.8762V15.5454C11.9087 15.9809 11.5552 16.3344 11.1196 16.3344Z" fill="#FEFEFE"/>
<mask id="mask0_441_9095" style="mask-type:luminance" maskUnits="userSpaceOnUse" x="0" y="2" width="22" height="12">
<path fill-rule="evenodd" clip-rule="evenodd" d="M0.603516 2.8186H21.6344V13.6666H0.603516V2.8186Z" fill="white"/>
</mask>
<g mask="url(#mask0_441_9095)">
<path fill-rule="evenodd" clip-rule="evenodd" d="M2.18115 9.98645C4.6809 11.3447 7.83294 12.0885 11.1133 12.0885C14.4 12.0885 17.5552 11.3447 20.056 9.98645V6.82809C20.056 5.48669 18.9713 4.39673 17.6363 4.39673H4.61146C3.27111 4.39673 2.18115 5.48248 2.18115 6.81757V9.98645ZM11.1133 13.6666C7.3837 13.6666 3.78874 12.7639 0.99335 11.1269C0.751371 10.9859 0.603027 10.7271 0.603027 10.4462V6.81757C0.603027 4.61241 2.40104 2.8186 4.61146 2.8186H17.6363C19.8414 2.8186 21.6342 4.61661 21.6342 6.82809V10.4462C21.6342 10.7271 21.4848 10.9859 21.2438 11.1269C18.4485 12.7639 14.8503 13.6666 11.1133 13.6666Z" fill="#FEFEFE"/>
</g>
<mask id="mask1_441_9095" style="mask-type:luminance" maskUnits="userSpaceOnUse" x="6" y="0" width="10" height="5">
<path fill-rule="evenodd" clip-rule="evenodd" d="M6.64795 0.104492H15.5907V4.39268H6.64795V0.104492Z" fill="white"/>
</mask>
<g mask="url(#mask1_441_9095)">
<path fill-rule="evenodd" clip-rule="evenodd" d="M14.8016 4.39278C14.366 4.39278 14.0125 4.03928 14.0125 3.60372V3.21866C14.0125 2.37173 13.3234 1.68262 12.4765 1.68262H9.76212C8.91519 1.68262 8.22607 2.37173 8.22607 3.21866V3.60372C8.22607 4.03928 7.87257 4.39278 7.43701 4.39278C7.00145 4.39278 6.64795 4.03928 6.64795 3.60372V3.21866C6.64795 1.50166 8.04512 0.104492 9.76212 0.104492H12.4765C14.1935 0.104492 15.5907 1.50166 15.5907 3.21866V3.60372C15.5907 4.03928 15.2372 4.39278 14.8016 4.39278Z" fill="#FEFEFE"/>
</g>
<path fill-rule="evenodd" clip-rule="evenodd" d="M17.221 20.8727H5.0168C2.83373 20.8727 0.995739 19.1673 0.830562 16.9895L0.630666 14.3498C0.598051 13.9153 0.924197 13.5355 1.35871 13.5029C1.79532 13.4871 2.17197 13.7953 2.20563 14.2309L2.40448 16.8695C2.50758 18.2288 3.65435 19.2946 5.0168 19.2946H17.221C18.5834 19.2946 19.7312 18.2288 19.8333 16.8695L20.0332 14.2309C20.0669 13.7953 20.453 13.486 20.8801 13.5029C21.3146 13.5355 21.6397 13.9153 21.6071 14.3498L21.4072 16.9895C21.242 19.1673 19.404 20.8727 17.221 20.8727Z" fill="#FEFEFE"/>
</svg>
